<?xml version="1.0" encoding="UTF-8"?>
<svg xmlns="http://www.w3.org/2000/svg" xmlns:xlink="http://www.w3.org/1999/xlink" version="1.1" viewBox="0 0 180 180">
  <!-- Generator: Adobe Illustrator 30.1.0, SVG Export Plug-In . SVG Version: 2.1.1 Build 136)  -->
  <defs>
    <style>
      .st0 {
        fill: url(#linear-gradient);
      }

      .st1 {
        fill: #fff;
      }
    </style>
    <linearGradient id="linear-gradient" x1="-34.81" y1="162.1" x2="-33.81" y2="161.1" gradientTransform="translate(6265 29178) scale(180 -180)" gradientUnits="userSpaceOnUse">
      <stop offset="0" stop-color="#667eea"/>
      <stop offset="1" stop-color="#764ba2"/>
    </linearGradient>
  </defs>
  <g id="Layer_1">
    <rect class="st0" width="180" height="180"/>
  </g>
  <g id="Layer_2">
    <g>
      <path class="st1" d="M93.8,103.87c.08.05.21.08.36.08.07,0,.14,0,.22-.02l-.03-11.03c-.26.46-.53,1.04-.8,1.85-.95-.42-1.53-1.42-1.95-2.3l-.08.08v9.11c.6.88,1.34,1.63,2.28,2.22Z"/>
      <path class="st1" d="M135.27,74.49l-3.59-.09c-.92-1.3-1.87-2.19-3.32-2.46-5.17-.97-8.85-1.09-13.91-.3l-.25,3.05c4.78-.83,8.19-.82,13.12.02,1.07.21,1.77.94,1.77,2.06l-.03,44.09c-12.38-2.44-24.11.02-34.68,6.89v-21.04s0-.35,0-.35c-.09,0-.17.01-.22.01-.36,0-.66-.22-.9-.38-.65-.42-1.23-.93-1.75-1.5l-.03,23.26c-10.67-6.85-22.33-9.35-34.7-6.88l-.03-44.1c0-1.11.7-1.87,1.77-2.05,4.91-.83,8.34-.95,13.11-.13l-.22-2.66c0-.1,0-.19,0-.29-4.8-.75-8.25-.62-13.14.15-1.83.29-3.08.93-4.1,2.63l-3.64.07c-2.04.04-4.23,1.22-4.23,3.59v49.16c.16,1.88,1.83,3.41,3.88,3.09,15.03-2.34,30.21,1.15,42.69,10.13,12.47-8.87,27.42-12.48,42.54-10.15,2.52.39,4.14-1.4,4.13-3.5v-48.31c0-2.58-1.85-3.95-4.28-4.01ZM136.59,127.53c-15.38-2.49-30.78.57-43.7,9.5-12.78-8.83-28.07-12.06-43.63-9.47l-.02-49.87c1.75-.24,3.09-.26,4.65-.07v42.3c-.26,2.02,1.37,4.2,3.6,3.77,12.5-2.39,25.13.71,35.4,8.63,10.13-7.72,22.47-11,34.75-8.69.97.18,2.17-.02,2.89-.43.8-.45,1.42-1.67,1.42-3.09v-42.48c1.57-.19,2.9-.18,4.64.05v49.84Z"/>
      <path class="st1" d="M92.87,80.04c-5.71-4.17-12.2-6.88-18.96-8.09,0,.02,0,.03,0,.05l.24,2.92c6.18,1.22,12.1,3.79,17.39,7.68v3.93s2.79.03,2.79.03v-4.06c5.25-3.76,11.15-6.33,17.32-7.55l.25-3.08c-6.75,1.21-13.23,3.96-19.03,8.18Z"/>
    </g>
    <g id="Rocket">
      <path class="st1" d="M101.29,84.42c-.53,1.55-1.65,2.19-3.12,2.18l-10.77-.11c-1.4.07-2.53-.8-2.95-2.11-.74-2.29-1.38-4.47-2.01-6.88l-5.8,2.62c-.35.16-1,.17-1.29.04-.34-.16-.83-.78-.87-1.17l-.57-6.98c-.29-3.53,1.41-6.63,4.7-8.15l2.44-1.13c.58-8.46,5-17.43,10.59-23.57.36-.39,1.03-.76,1.46-.8.38-.03,1.09.3,1.44.69,5.67,6.36,9.81,15.34,10.41,23.89l2.34,1.15c2.78,1.37,4.9,4.09,4.64,7.3l-.64,7.9c-.03.33-.45.91-.72,1.07-.3.18-1.05.2-1.42.03l-5.79-2.72c-.65,2.32-1.3,4.47-2.07,6.76ZM88.74,57.89c-1.44,2.5-.46,5.43,1.76,6.68,2.41,1.36,5.28.58,6.65-1.74s.59-5.22-1.59-6.58-5.4-.83-6.82,1.63Z"/>
      <path class="st1" d="M99.22,89c1.83,2.9.31,6.57-1.58,9.01-2.78,3.6-1.96,4.6-2.75,5.7-.16.22-.86.31-1.1.16-1.87-1.2-3-2.98-3.72-5.28-.69.35-.41,1.16-1.44,1.62-.27.12-.95-.2-1.1-.48-1.67-3.03-2.91-7.49-.97-10.75l3.22.02c-.39,1.26.67,4.65,1.27,4.02l.55-.57c.42.88.99,1.88,1.95,2.3,1.08-3.32,2.31-2.83,2.33-5.78l3.35.03Z"/>
    </g>
  </g>
</svg>