<?xml version="1.0" encoding="UTF-8"?>
<svg xmlns="http://www.w3.org/2000/svg" xmlns:xlink="http://www.w3.org/1999/xlink" version="1.1" viewBox="0 0 180 180">
  <!-- Generator: Adobe Illustrator 30.1.0, SVG Export Plug-In . SVG Version: 2.1.1 Build 136)  -->
  <defs>
    <style>
      .st0 {
        fill: url(#linear-gradient);
      }

      .st1 {
        fill: #fff;
      }
    </style>
    <linearGradient id="linear-gradient" x1="-69.61" y1="-.2" x2="-68.61" y2=".8" gradientTransform="translate(12530 36) scale(180)" gradientUnits="userSpaceOnUse">
      <stop offset="0" stop-color="#667eea"/>
      <stop offset="1" stop-color="#764ba2"/>
    </linearGradient>
  </defs>
  <g id="Layer_1">
    <g id="Layer_11" data-name="Layer_1">
      <rect class="st0" width="180" height="180"/>
    </g>
  </g>
  <g id="Layer_2">
    <path class="st1" d="M128.21,146.62l-65.02.02c-8.39,0-14.75-6.56-14.75-14.89V46.21c0-8.34,6.36-14.89,14.75-14.89h64.32c3.96-.01,7.09,2.77,7.09,6.86v102c0,3.38-2.72,6.44-6.39,6.44ZM93.6,36.81h-30.42c-4.93,0-8.68,3.59-9.17,8.52v75.2c3.21-2.01,6.1-2.98,9.69-2.98h65.38s-.01-80.43-.01-80.43c-2.99-.3-5.56-.3-8.27-.17M115.21,36.8l-16.11.02M65.89,134.96c-1.82,0-2.83-1.52-2.75-2.97.07-1.17,1.13-2.51,2.74-2.51l62.99-.08c.29-2.08.27-3.97-.13-6.29l-66,.03c-5.2,0-8.83,4.55-8.69,9.28.13,4.4,3.69,8.71,8.71,8.71l65.94.03c.48-2.19.5-4.12.16-6.25l-62.96.05Z"/>
  </g>
  <g id="Layer_3">
    <g id="Layer_21" data-name="Layer_2">
      <g id="Rocket">
        <path class="st1" d="M99.8,87.66c-.44,1.28-1.37,1.82-2.59,1.81l-8.93-.09c-1.16.06-2.1-.66-2.45-1.75-.61-1.9-1.14-3.71-1.67-5.7l-4.81,2.17c-.29.13-.83.14-1.07.03-.28-.13-.69-.65-.72-.97l-.47-5.79c-.24-2.93,1.17-5.5,3.9-6.76l2.02-.94c.48-7.01,4.14-14.45,8.78-19.54.3-.32.85-.63,1.21-.66.31-.02.9.25,1.19.57,4.7,5.27,8.13,12.72,8.63,19.8l1.94.95c2.3,1.14,4.06,3.39,3.85,6.05l-.53,6.55c-.02.27-.37.75-.6.89-.25.15-.87.17-1.18.02l-4.8-2.25c-.54,1.92-1.08,3.71-1.72,5.6h0Z"/>
        <path class="st1" d="M98.09,95.46c1.52,2.4.26,5.45-1.31,7.47-2.3,2.98-1.62,3.81-2.28,4.72-.13.18-.71.26-.91.13-1.55-.99-2.49-2.47-3.08-4.38-.57.29-.34.96-1.19,1.34-.22.1-.79-.17-.91-.4-1.38-2.51-2.41-6.21-.8-8.91l2.67.02c-.32,1.04.56,3.85,1.05,3.33l.46-.47c.35.73.82,1.56,1.62,1.91.9-2.75,1.91-2.35,1.93-4.79l2.78.02h0Z"/>
      </g>
    </g>
  </g>
</svg>