<svg width="32" height="32" viewBox="0 0 32 32" xmlns="http://www.w3.org/2000/svg">
  <defs>
    <linearGradient id="grad" x1="0%" y1="0%" x2="100%" y2="100%">
      <stop offset="0%" style="stop-color:#a855f7"/>
      <stop offset="100%" style="stop-color:#3b82f6"/>
    </linearGradient>
  </defs>

  <!-- Background circle -->
  <circle cx="16" cy="16" r="15" fill="#0a0a0f" stroke="url(#grad)" stroke-width="1"/>

  <!-- Rocket -->
  <g transform="translate(16, 14)">
    <path d="M0,-8 C3,-8 5,-6 5,-2 L5,4 L7,7 L5,7 L5,8 L2,8 L2,9 L-2,9 L-2,8 L-5,8 L-5,7 L-7,7 L-5,4 L-5,-2 C-5,-6 -3,-8 0,-8 Z"
          fill="url(#grad)"/>
    <circle cx="0" cy="-3" r="1.5" fill="#0a0a0f"/>
    <circle cx="0" cy="-3" r="1" fill="#3b82f6"/>
    <!-- Flame -->
    <path d="M-1.5,9 Q0,12 1.5,9 Q0.5,10.5 0,11.5 Q-0.5,10.5 -1.5,9" fill="#f97316"/>
  </g>
</svg>
