<?xml version="1.0" encoding="UTF-8"?>
<svg xmlns="http://www.w3.org/2000/svg" xmlns:xlink="http://www.w3.org/1999/xlink" version="1.1" viewBox="0 0 180 180">
  <!-- Generator: Adobe Illustrator 30.1.0, SVG Export Plug-In . SVG Version: 2.1.1 Build 136)  -->
  <defs>
    <style>
      .st0 {
        fill: url(#linear-gradient);
      }

      .st1 {
        fill: #fff;
      }
    </style>
    <linearGradient id="linear-gradient" x1="-69.61" y1="-.2" x2="-68.61" y2=".8" gradientTransform="translate(12530 36) scale(180)" gradientUnits="userSpaceOnUse">
      <stop offset="0" stop-color="#667eea"/>
      <stop offset="1" stop-color="#764ba2"/>
    </linearGradient>
  </defs>
  <g id="Layer_1">
    <g id="Layer_11" data-name="Layer_1">
      <rect class="st0" width="180" height="180"/>
    </g>
  </g>
  <g id="Layer_2">
    <path class="st1" d="M128.21,146.62l-65.02.02c-8.39,0-14.75-6.56-14.75-14.89V46.21c0-8.34,6.36-14.89,14.75-14.89h64.32c3.96-.01,7.09,2.77,7.09,6.86v102c0,3.38-2.72,6.44-6.39,6.44ZM93.6,36.81h-30.42c-4.93,0-8.68,3.59-9.17,8.52v75.2c3.21-2.01,6.1-2.98,9.69-2.98h65.38s-.01-80.43-.01-80.43c-2.99-.3-5.56-.3-8.27-.17M115.21,36.8l-16.11.02M65.89,134.96c-1.82,0-2.83-1.52-2.75-2.97.07-1.17,1.13-2.51,2.74-2.51l62.99-.08c.29-2.08.27-3.97-.13-6.29l-66,.03c-5.2,0-8.83,4.55-8.69,9.28.13,4.4,3.69,8.71,8.71,8.71l65.94.03c.48-2.19.5-4.12.16-6.25l-62.96.05Z"/>
  </g>
  <g id="Layer_3">
    <g id="Layer_21" data-name="Layer_2">
      <g id="Rocket">
        <path class="st1" d="M93.06,49.48c.32,0,.87.26,1.15.57,4.7,5.27,8.13,12.72,8.63,19.8l1.94.95c2.3,1.14,4.06,3.39,3.85,6.05l-.53,6.55c-.02.27-.37.75-.6.89-.13.08-.37.12-.61.12-.21,0-.42-.03-.56-.1l-4.8-2.25c-.54,1.92-1.08,3.71-1.72,5.6h0c-.44,1.27-1.35,1.8-2.56,1.8,0,0-.02,0-.03,0l-8.93-.09s-.09,0-.13,0c-1.1,0-1.98-.71-2.32-1.75-.61-1.9-1.14-3.71-1.67-5.7l-4.81,2.17c-.16.07-.39.11-.61.11-.18,0-.35-.03-.46-.07-.28-.13-.69-.65-.72-.97l-.47-5.79c-.24-2.93,1.17-5.5,3.9-6.76l2.02-.94c.48-7.01,4.14-14.45,8.78-19.54.3-.32.85-.63,1.21-.66.01,0,.03,0,.04,0M92.93,71.77c1.38,0,2.69-.71,3.45-2,1.14-1.92.49-4.33-1.32-5.45-.65-.4-1.41-.61-2.17-.61-1.36,0-2.73.65-3.49,1.96h0c-1.19,2.08-.38,4.51,1.46,5.55.67.38,1.37.55,2.06.55M93.06,46.48c-.08,0-.2,0-.28.01-1.37.13-2.56.95-3.18,1.62-4.97,5.45-8.46,12.8-9.38,19.57l-.48.22c-3.82,1.76-5.97,5.49-5.63,9.72l.47,5.78s0,.04,0,.06c.16,1.53,1.37,2.88,2.43,3.38.02,0,.03.02.05.02.5.22,1.07.34,1.69.34.47,0,1.17-.07,1.85-.38l1.61-.73c.24.81.49,1.62.76,2.45.75,2.32,2.78,3.83,5.17,3.83.06,0,.11,0,.17,0l8.85.09s.05,0,.06,0c2.49,0,4.48-1.36,5.33-3.66.02-.06.05-.12.07-.18.26-.78.51-1.56.76-2.36l1.63.77c.69.32,1.38.38,1.84.38.57,0,1.4-.1,2.16-.55.91-.54,1.92-1.82,2.04-3.19l.53-6.58c.3-3.66-1.87-7.19-5.51-8.98l-.45-.22c-.9-7-4.27-14.31-9.21-19.84-.85-.95-2.21-1.58-3.39-1.58h0ZM92.04,67.1c.25-.36.67-.4.85-.4.22,0,.42.05.58.15.41.26.64.84.32,1.38-.2.34-.51.52-.86.52-.2,0-.39-.06-.59-.17-.22-.13-.39-.34-.46-.6-.08-.27-.03-.55.13-.83.01-.02.03-.05.04-.07h0Z"/>
        <path class="st1" d="M98.09,95.46c1.52,2.4.26,5.45-1.31,7.47-2.3,2.98-1.62,3.81-2.28,4.72-.13.18-.71.26-.91.13-1.55-.99-2.49-2.47-3.08-4.38-.57.29-.34.96-1.19,1.34-.22.1-.79-.17-.91-.4-1.38-2.51-2.41-6.21-.8-8.91l2.67.02c-.32,1.04.56,3.85,1.05,3.33l.46-.47c.35.73.82,1.56,1.62,1.91.9-2.75,1.91-2.35,1.93-4.79l2.78.02h0Z"/>
      </g>
    </g>
  </g>
</svg>